<?xml version="1.0" standalone="no"?>
<!DOCTYPE svg PUBLIC "-//W3C//DTD SVG 20010904//EN"
 "http://www.w3.org/TR/2001/REC-SVG-20010904/DTD/svg10.dtd">
<svg version="1.0" xmlns="http://www.w3.org/2000/svg"
 width="70.000000pt" height="70.000000pt" viewBox="0 0 70.000000 70.000000"
 preserveAspectRatio="xMidYMid meet">
<metadata>
Created by potrace 1.14, written by Peter Selinger 2001-2017
</metadata>
<g transform="translate(0.000000,70.000000) scale(0.100000,-0.100000)"
fill="#000000" stroke="none">
<path d="M290 667 c0 -5 -3 -7 -6 -4 -9 9 -65 -23 -84 -47 -8 -11 -28 -46 -45
-79 -16 -33 -33 -58 -37 -56 -10 7 -69 -60 -84 -96 -17 -41 -18 -104 -3 -156
13 -43 60 -99 83 -99 22 0 22 66 1 74 -19 7 -37 50 -40 99 -4 48 29 98 72 110
27 8 33 16 43 59 29 121 146 172 230 101 39 -33 43 -50 15 -77 -27 -28 -32
-50 -13 -70 10 -11 19 -8 51 15 34 24 55 29 98 20 3 0 16 -15 28 -32 35 -47
39 -125 10 -183 -19 -40 -21 -49 -10 -73 l13 -27 19 24 c46 58 60 127 44 222
-8 48 -58 128 -80 128 -8 0 -15 4 -15 9 0 4 -11 7 -25 5 -23 -2 -55 17 -55 34
0 13 -61 75 -86 89 -34 17 -124 25 -124 10z"/>
<path d="M242 279 c-7 -11 -10 -24 -7 -28 3 -5 -8 -14 -25 -19 -29 -11 -34
-32 -14 -63 3 -6 2 -14 -4 -18 -11 -6 -15 -25 -13 -53 1 -11 9 -18 22 -18 16
0 20 -5 16 -20 -3 -11 3 -30 13 -43 17 -20 19 -20 25 -4 9 21 35 23 35 2 0 -8
4 -15 8 -15 11 0 49 29 39 30 -4 0 -3 9 3 20 6 10 17 17 24 14 19 -7 30 30 16
56 -9 16 -8 24 5 36 11 11 12 20 5 33 -5 10 -6 22 -2 26 4 3 3 6 -3 5 -26 -6
-35 1 -31 23 5 32 -17 50 -40 32 -17 -12 -22 -11 -39 5 -20 19 -21 19 -33 -1z
m59 -83 c5 3 14 -5 20 -18 12 -28 -2 -75 -27 -85 -21 -8 -48 21 -50 55 -1 28
37 74 44 53 2 -6 8 -9 13 -5z"/>
<path d="M500 197 c0 -19 -15 -23 -25 -7 -9 15 -25 2 -25 -21 0 -10 -4 -19
-10 -19 -5 0 -8 -18 -6 -40 3 -41 48 -101 60 -81 4 6 13 8 21 5 9 -4 18 1 21
12 4 11 12 25 18 33 13 17 17 41 5 41 -4 0 -6 7 -3 15 4 9 -6 28 -25 47 -23
24 -31 28 -31 15z m16 -80 c1 -9 -4 -21 -11 -27 -10 -8 -15 -6 -20 9 -7 24 2
44 18 38 5 -1 11 -11 13 -20z"/>
</g>
</svg>
